{
  "accessors": [
    {
      "bufferView": 2,
      "componentType": 5126,
      "count": 132,
      "max": [
        1.2159199714660645,
        1.2159199714660645,
        1.9793599843978882
      ],
      "min": [
        -1.2159199714660645,
        -1.2159199714660645,
        0.47983700037002563
      ],
      "type": "VEC3"
    },
    {
      "bufferView": 2,
      "byteOffset": 1584,
      "componentType": 5126,
      "count": 132,
      "max": [
        0.8075136542320251,
        0.8075136542320251,
        0.8139163851737976
      ],
      "min": [
        -0.8075136542320251,
        -0.8075136542320251,
        -0.7712959051132202
      ],
      "type": "VEC3"
    },
    {
      "bufferView": 1,
      "componentType": 5126,
      "count": 132,
      "max": [
        1.0,
        1.0
      ],
      "min": [
        0.0,
        0.5
      ],
      "type": "VEC2"
    },
    {
      "bufferView": 0,
      "componentType": 5125,
      "count": 768,
      "type": "SCALAR"
    },
    {
      "bufferView": 2,
      "byteOffset": 3168,
      "componentType": 5126,
      "count": 65532,
      "max": [
        1.285673975944519,
        1.285673975944519,
        3.387125015258789
      ],
      "min": [
        -1.285673975944519,
        -1.285673975944519,
        2.3373780250549316
      ],
      "type": "VEC3"
    },
    {
      "bufferView": 2,
      "byteOffset": 789552,
      "componentType": 5126,
      "count": 65532,
      "max": [
        0.9999622106552124,
        0.9999622106552124,
        1.0
      ],
      "min": [
        -0.9999622106552124,
        -0.9999622106552124,
        -0.9999996423721313
      ],
      "type": "VEC3"
    },
    {
      "bufferView": 0,
      "byteOffset": 3072,
      "componentType": 5125,
      "count": 377727,
      "type": "SCALAR"
    },
    {
      "bufferView": 2,
      "byteOffset": 1575936,
      "componentType": 5126,
      "count": 54652,
      "max": [
        1.2718950510025024,
        1.2718950510025024,
        3.369215965270996
      ],
      "min": [
        -1.2718950510025024,
        -1.2718950510025024,
        2.35788893699646
      ],
      "type": "VEC3"
    },
    {
      "bufferView": 2,
      "byteOffset": 2231760,
      "componentType": 5126,
      "count": 54652,
      "max": [
        0.9999622106552124,
        0.9999622106552124,
        0.9333876371383667
      ],
      "min": [
        -0.9999622106552124,
        -0.9999622106552124,
        -1.0
      ],
      "type": "VEC3"
    },
    {
      "bufferView": 0,
      "byteOffset": 1513980,
      "componentType": 5125,
      "count": 321441,
      "type": "SCALAR"
    },
    {
      "bufferView": 2,
      "byteOffset": 2887584,
      "componentType": 5126,
      "count": 520,
      "max": [
        1.2334339618682861,
        1.2334339618682861,
        2.5808820724487305
      ],
      "min": [
        -1.2334339618682861,
        -1.2334339618682861,
        0.0027979998849332333
      ],
      "type": "VEC3"
    },
    {
      "bufferView": 2,
      "byteOffset": 2893824,
      "componentType": 5126,
      "count": 520,
      "max": [
        0.9939376711845398,
        0.9939376711845398,
        1.0
      ],
      "min": [
        -0.9939376711845398,
        -0.9939376711845398,
        -1.0
      ],
      "type": "VEC3"
    },
    {
      "bufferView": 1,
      "byteOffset": 1056,
      "componentType": 5126,
      "count": 520,
      "max": [
        1.0,
        1.0
      ],
      "min": [
        0.0,
        0.009999999776482582
      ],
      "type": "VEC2"
    },
    {
      "bufferView": 0,
      "byteOffset": 2799744,
      "componentType": 5125,
      "count": 3072,
      "type": "SCALAR"
    }
  ],
  "asset": {
    "extras": {
      "author": "Cereces (https://sketchfab.com/Cereces)",
      "license": "CC-BY-4.0 (http://creativecommons.org/licenses/by/4.0/)",
      "source": "https://sketchfab.com/3d-models/cup-of-coffee-6a0bff570e5546d5b53536b073d7199d",
      "title": "Cup of Coffee"
    },
    "generator": "Sketchfab-13.37.1",
    "version": "2.0"
  },
  "bufferViews": [
    {
      "buffer": 0,
      "byteLength": 2812032,
      "name": "floatBufferViews",
      "target": 34963
    },
    {
      "buffer": 0,
      "byteLength": 5216,
      "byteOffset": 2812032,
      "byteStride": 8,
      "name": "floatBufferViews",
      "target": 34962
    },
    {
      "buffer": 0,
      "byteLength": 2900064,
      "byteOffset": 2817248,
      "byteStride": 12,
      "name": "floatBufferViews",
      "target": 34962
    }
  ],
  "buffers": [
    {
      "byteLength": 5717312,
      "uri": "scene.bin"
    }
  ],
  "materials": [
    {
      "doubleSided": true,
      "name": "Material",
      "pbrMetallicRoughness": {
        "baseColorFactor": [
          0.173348,
          0.0842728,
          0.0354184,
          1.0
        ],
        "metallicFactor": 0.0,
        "roughnessFactor": 0.782353
      }
    },
    {
      "doubleSided": true,
      "name": "Material.001",
      "pbrMetallicRoughness": {
        "baseColorFactor": [
          0.0134104,
          0.0134104,
          0.0134104,
          1.0
        ],
        "metallicFactor": 0.0,
        "roughnessFactor": 0.477941
      }
    },
    {
      "doubleSided": true,
      "name": "Material.002",
      "pbrMetallicRoughness": {
        "baseColorFactor": [
          0.486908,
          0.33278,
          0.248705,
          1.0
        ],
        "metallicFactor": 0.0,
        "roughnessFactor": 0.779412
      }
    }
  ],
  "meshes": [
    {
      "name": "Object_0",
      "primitives": [
        {
          "attributes": {
            "NORMAL": 1,
            "POSITION": 0,
            "TEXCOORD_0": 2
          },
          "indices": 3,
          "material": 0,
          "mode": 4
        }
      ]
    },
    {
      "name": "Object_1",
      "primitives": [
        {
          "attributes": {
            "NORMAL": 5,
            "POSITION": 4
          },
          "indices": 6,
          "material": 1,
          "mode": 4
        }
      ]
    },
    {
      "name": "Object_2",
      "primitives": [
        {
          "attributes": {
            "NORMAL": 8,
            "POSITION": 7
          },
          "indices": 9,
          "material": 1,
          "mode": 4
        }
      ]
    },
    {
      "name": "Object_3",
      "primitives": [
        {
          "attributes": {
            "NORMAL": 11,
            "POSITION": 10,
            "TEXCOORD_0": 12
          },
          "indices": 13,
          "material": 2,
          "mode": 4
        }
      ]
    }
  ],
  "nodes": [
    {
      "children": [
        1
      ],
      "matrix": [
        1.0,
        0.0,
        0.0,
        0.0,
        0.0,
        2.220446049250313e-16,
        -1.0,
        0.0,
        0.0,
        1.0,
        2.220446049250313e-16,
        0.0,
        0.0,
        0.0,
        0.0,
        1.0
      ],
      "name": "Sketchfab_model"
    },
    {
      "children": [
        2,
        3,
        4,
        5
      ],
      "name": "Kaffeebecher.obj.cleaner.materialmerger.gles"
    },
    {
      "mesh": 0,
      "name": "Object_2"
    },
    {
      "mesh": 1,
      "name": "Object_3"
    },
    {
      "mesh": 2,
      "name": "Object_4"
    },
    {
      "mesh": 3,
      "name": "Object_5"
    }
  ],
  "scene": 0,
  "scenes": [
    {
      "name": "Sketchfab_Scene",
      "nodes": [
        0
      ]
    }
  ]
}
